<?xml version="1.0" standalone="no"?>
<!DOCTYPE svg PUBLIC "-//W3C//DTD SVG 20010904//EN"
 "http://www.w3.org/TR/2001/REC-SVG-20010904/DTD/svg10.dtd">
<svg version="1.0" xmlns="http://www.w3.org/2000/svg"
 width="756.000000pt" height="573.000000pt" viewBox="0 0 756.000000 573.000000"
 preserveAspectRatio="xMidYMid meet">

<g transform="translate(0.000000,573.000000) scale(0.100000,-0.100000)"
fill="none" stroke="#fff" stroke-width='8%' >
<path d="M5909 5580 c-118 -18 -222 -72 -308 -160 -173 -176 -204 -445 -73
-646 194 -297 595 -342 842 -94 212 211 212 527 0 741 -121 123 -299 184 -461
159z"/>
<path d="M2026 5464 c-153 -37 -309 -160 -375 -297 -78 -161 -78 -318 0 -477
152 -308 530 -409 816 -217 156 104 246 269 247 452 0 351 -345 622 -688 539z"/>
<path d="M1396 4550 c-422 -141 -787 -463 -1051 -929 -104 -185 -201 -432
-255 -654 -53 -216 -50 -284 17 -358 66 -72 163 -109 233 -88 67 20 104 85
132 234 9 47 17 65 28 65 11 0 21 -28 38 -112 48 -236 157 -512 268 -680 133
-201 395 -414 659 -538 397 -187 820 -217 1209 -88 404 133 790 474 937 826
80 192 130 370 157 559 9 68 22 123 27 123 6 0 19 -48 29 -107 36 -213 56
-257 129 -294 82 -43 195 -17 257 59 17 20 30 40 30 45 0 5 178 197 395 428
340 360 425 443 425 414 0 -88 53 -405 122 -725 l50 -235 1 -1060 2 -1060 22
-65 c56 -163 162 -249 310 -250 169 -1 317 134 358 327 12 56 15 221 15 941
l0 872 85 0 85 0 -3 -882 c-2 -960 -4 -931 54 -1055 114 -242 394 -273 534
-60 69 105 76 148 86 482 4 174 4 624 -2 1071 l-10 771 66 333 c36 184 74 386
84 449 16 112 18 116 41 116 24 0 25 -3 32 -85 3 -47 2 -344 -4 -661 -9 -517
-9 -582 6 -631 33 -114 137 -208 231 -208 93 0 214 86 255 182 33 76 39 197
39 793 0 560 -9 799 -33 889 -83 302 -335 591 -587 671 l-80 25 -851 0 c-978
0 -876 11 -1011 -105 -103 -88 -555 -601 -791 -897 -33 -43 -66 -78 -73 -78
-6 0 -16 14 -22 32 -18 50 -128 243 -203 355 -104 156 -213 286 -350 418 -240
232 -492 377 -725 416 l-69 12 -80 -80 c-88 -89 -173 -137 -298 -168 -91 -22
-271 -22 -362 0 -145 35 -315 142 -389 243 -38 52 -47 52 -199 2z"/>
<path d="M3095 1512 c-108 -113 -203 -178 -321 -222 -117 -42 -294 -87 -386
-97 l-73 -8 -3 -335 c-3 -366 5 -464 42 -547 74 -161 273 -262 461 -234 142
21 249 77 318 167 68 89 67 78 67 755 0 334 -3 610 -7 612 -5 2 -48 -39 -98
-91z"/>
<path d="M1185 1277 c-4 -150 -5 -411 -3 -582 4 -294 5 -313 27 -367 90 -228
434 -339 673 -217 59 30 130 100 158 156 46 92 50 136 57 551 l6 392 -54 0
c-68 0 -234 25 -314 47 -154 42 -320 126 -465 234 l-78 57 -7 -271z"/>
</g>
</svg>
